{
  "accessors": [
    {
      "bufferView": 2,
      "componentType": 5126,
      "count": 6623,
      "max": [
        39.82942581176758,
        54.13023376464844,
        39.82942199707031
      ],
      "min": [
        -41.59410095214844,
        -0.013134956359863281,
        -39.96928787231445
      ],
      "type": "VEC3"
    },
    {
      "bufferView": 2,
      "byteOffset": 79476,
      "componentType": 5126,
      "count": 6623,
      "max": [
        1.0,
        1.0,
        1.0
      ],
      "min": [
        -1.0,
        -1.0,
        -1.0
      ],
      "type": "VEC3"
    },
    {
      "bufferView": 1,
      "componentType": 5126,
      "count": 6623,
      "max": [
        0.9919735789299011,
        0.9935264587402344
      ],
      "min": [
        0.007865101099014282,
        0.0063190460205078125
      ],
      "type": "VEC2"
    },
    {
      "bufferView": 1,
      "byteOffset": 52984,
      "componentType": 5126,
      "count": 6623,
      "max": [
        0.9919735789299011,
        0.9935264587402344
      ],
      "min": [
        0.007865101099014282,
        0.0063190460205078125
      ],
      "type": "VEC2"
    },
    {
      "bufferView": 1,
      "byteOffset": 105968,
      "componentType": 5126,
      "count": 6623,
      "max": [
        0.9919735789299011,
        0.9935264587402344
      ],
      "min": [
        0.007865101099014282,
        0.0063190460205078125
      ],
      "type": "VEC2"
    },
    {
      "bufferView": 0,
      "componentType": 5125,
      "count": 25350,
      "type": "SCALAR"
    },
    {
      "bufferView": 2,
      "byteOffset": 158952,
      "componentType": 5126,
      "count": 2652,
      "max": [
        3.2012691497802734,
        6.390874862670898,
        0.16909313201904297
      ],
      "min": [
        -3.201335906982422,
        0.0009241104125976563,
        -0.21599090099334717
      ],
      "type": "VEC3"
    },
    {
      "bufferView": 2,
      "byteOffset": 190776,
      "componentType": 5126,
      "count": 2652,
      "max": [
        0.9999885559082031,
        0.9999842643737793,
        1.0
      ],
      "min": [
        -0.9999885559082031,
        -0.9999842643737793,
        -1.0
      ],
      "type": "VEC3"
    },
    {
      "bufferView": 1,
      "byteOffset": 158952,
      "componentType": 5126,
      "count": 2652,
      "max": [
        0.9907519221305847,
        0.9907866716384888
      ],
      "min": [
        0.016445845365524292,
        0.008531510829925537
      ],
      "type": "VEC2"
    },
    {
      "bufferView": 1,
      "byteOffset": 180168,
      "componentType": 5126,
      "count": 2652,
      "max": [
        0.9907519221305847,
        0.9907866716384888
      ],
      "min": [
        0.016445845365524292,
        0.008531510829925537
      ],
      "type": "VEC2"
    },
    {
      "bufferView": 1,
      "byteOffset": 201384,
      "componentType": 5126,
      "count": 2652,
      "max": [
        0.9907519221305847,
        0.9907866716384888
      ],
      "min": [
        0.016445845365524292,
        0.008531510829925537
      ],
      "type": "VEC2"
    },
    {
      "bufferView": 0,
      "byteOffset": 101400,
      "componentType": 5125,
      "count": 12576,
      "type": "SCALAR"
    },
    {
      "bufferView": 2,
      "byteOffset": 222600,
      "componentType": 5126,
      "count": 1000,
      "max": [
        15.167889595031738,
        25.347881317138672,
        4.413335800170898
      ],
      "min": [
        -15.167889595031738,
        -0.0983639657497406,
        -4.249756813049316
      ],
      "type": "VEC3"
    },
    {
      "bufferView": 2,
      "byteOffset": 234600,
      "componentType": 5126,
      "count": 1000,
      "max": [
        1.0,
        1.0,
        1.0
      ],
      "min": [
        -1.0,
        -1.0,
        -1.0
      ],
      "type": "VEC3"
    },
    {
      "bufferView": 1,
      "byteOffset": 222600,
      "componentType": 5126,
      "count": 1000,
      "max": [
        0.988165557384491,
        0.9849952459335327
      ],
      "min": [
        0.009279338642954826,
        0.020193159580230713
      ],
      "type": "VEC2"
    },
    {
      "bufferView": 1,
      "byteOffset": 230600,
      "componentType": 5126,
      "count": 1000,
      "max": [
        0.988165557384491,
        0.9849952459335327
      ],
      "min": [
        0.009279338642954826,
        0.020193159580230713
      ],
      "type": "VEC2"
    },
    {
      "bufferView": 1,
      "byteOffset": 238600,
      "componentType": 5126,
      "count": 1000,
      "max": [
        0.988165557384491,
        0.9849952459335327
      ],
      "min": [
        0.009279338642954826,
        0.020193159580230713
      ],
      "type": "VEC2"
    },
    {
      "bufferView": 0,
      "byteOffset": 151704,
      "componentType": 5125,
      "count": 3912,
      "type": "SCALAR"
    },
    {
      "bufferView": 2,
      "byteOffset": 246600,
      "componentType": 5126,
      "count": 3945,
      "max": [
        16.23552131652832,
        16.533143997192383,
        16.86713409423828
      ],
      "min": [
        -16.23552131652832,
        -4.76837158203125e-07,
        -16.86713409423828
      ],
      "type": "VEC3"
    },
    {
      "bufferView": 2,
      "byteOffset": 293940,
      "componentType": 5126,
      "count": 3945,
      "max": [
        0.9999952912330627,
        1.0,
        1.0
      ],
      "min": [
        -0.9999935626983643,
        -1.0,
        -1.0
      ],
      "type": "VEC3"
    },
    {
      "bufferView": 1,
      "byteOffset": 246600,
      "componentType": 5126,
      "count": 3945,
      "max": [
        0.9936190843582153,
        0.9903795719146729
      ],
      "min": [
        0.008138179779052734,
        0.00656437873840332
      ],
      "type": "VEC2"
    },
    {
      "bufferView": 1,
      "byteOffset": 278160,
      "componentType": 5126,
      "count": 3945,
      "max": [
        0.9936190843582153,
        0.9903795719146729
      ],
      "min": [
        0.008138179779052734,
        0.00656437873840332
      ],
      "type": "VEC2"
    },
    {
      "bufferView": 1,
      "byteOffset": 309720,
      "componentType": 5126,
      "count": 3945,
      "max": [
        0.9936190843582153,
        0.9903795719146729
      ],
      "min": [
        0.008138179779052734,
        0.00656437873840332
      ],
      "type": "VEC2"
    },
    {
      "bufferView": 0,
      "byteOffset": 167352,
      "componentType": 5125,
      "count": 14526,
      "type": "SCALAR"
    },
    {
      "bufferView": 2,
      "byteOffset": 341280,
      "componentType": 5126,
      "count": 2238,
      "max": [
        5.6402387619018555,
        5.113486289978027,
        1.9962629079818726
      ],
      "min": [
        -5.6402387619018555,
        0.0013878036988899112,
        -1.9962629079818726
      ],
      "type": "VEC3"
    },
    {
      "bufferView": 2,
      "byteOffset": 368136,
      "componentType": 5126,
      "count": 2238,
      "max": [
        0.9999997615814209,
        0.9999929666519165,
        1.0
      ],
      "min": [
        -0.9999997615814209,
        -1.0,
        -1.0
      ],
      "type": "VEC3"
    },
    {
      "bufferView": 1,
      "byteOffset": 341280,
      "componentType": 5126,
      "count": 2238,
      "max": [
        0.9957171678543091,
        0.9946249127388
      ],
      "min": [
        0.007980167865753174,
        0.0021902918815612793
      ],
      "type": "VEC2"
    },
    {
      "bufferView": 1,
      "byteOffset": 359184,
      "componentType": 5126,
      "count": 2238,
      "max": [
        0.9957171678543091,
        0.9946249127388
      ],
      "min": [
        0.007980167865753174,
        0.0021902918815612793
      ],
      "type": "VEC2"
    },
    {
      "bufferView": 1,
      "byteOffset": 377088,
      "componentType": 5126,
      "count": 2238,
      "max": [
        0.9957171678543091,
        0.9946249127388
      ],
      "min": [
        0.007980167865753174,
        0.0021902918815612793
      ],
      "type": "VEC2"
    },
    {
      "bufferView": 0,
      "byteOffset": 225456,
      "componentType": 5125,
      "count": 10110,
      "type": "SCALAR"
    },
    {
      "bufferView": 2,
      "byteOffset": 394992,
      "componentType": 5126,
      "count": 6455,
      "max": [
        5.078938961029053,
        7.453226566314697,
        6.009122371673584
      ],
      "min": [
        -5.078938961029053,
        0.1872844398021698,
        -4.597637176513672
      ],
      "type": "VEC3"
    },
    {
      "bufferView": 2,
      "byteOffset": 472452,
      "componentType": 5126,
      "count": 6455,
      "max": [
        1.0,
        1.0,
        1.0
      ],
      "min": [
        -1.0,
        -1.0,
        -1.0
      ],
      "type": "VEC3"
    },
    {
      "bufferView": 1,
      "byteOffset": 394992,
      "componentType": 5126,
      "count": 6455,
      "max": [
        0.9932063817977905,
        0.9924028515815735
      ],
      "min": [
        0.0077912271954119205,
        0.008358120918273926
      ],
      "type": "VEC2"
    },
    {
      "bufferView": 1,
      "byteOffset": 446632,
      "componentType": 5126,
      "count": 6455,
      "max": [
        0.9932063817977905,
        0.9924028515815735
      ],
      "min": [
        0.0077912271954119205,
        0.008358120918273926
      ],
      "type": "VEC2"
    },
    {
      "bufferView": 1,
      "byteOffset": 498272,
      "componentType": 5126,
      "count": 6455,
      "max": [
        0.9932063817977905,
        0.9924028515815735
      ],
      "min": [
        0.0077912271954119205,
        0.008358120918273926
      ],
      "type": "VEC2"
    },
    {
      "bufferView": 0,
      "byteOffset": 265896,
      "componentType": 5125,
      "count": 29697,
      "type": "SCALAR"
    }
  ],
  "asset": {
    "extras": {
      "author": "Raghuveer (https://sketchfab.com/jayanth0214)",
      "license": "CC-BY-4.0 (http://creativecommons.org/licenses/by/4.0/)",
      "source": "https://sketchfab.com/3d-models/classroom-ae98b2b4cd7a4c4f879e6a53c4e0f002",
      "title": "Classroom"
    },
    "generator": "Sketchfab-12.67.0",
    "version": "2.0"
  },
  "bufferViews": [
    {
      "buffer": 0,
      "byteLength": 384684,
      "name": "floatBufferViews",
      "target": 34963
    },
    {
      "buffer": 0,
      "byteLength": 549912,
      "byteOffset": 384684,
      "byteStride": 8,
      "name": "floatBufferViews",
      "target": 34962
    },
    {
      "buffer": 0,
      "byteLength": 549912,
      "byteOffset": 934596,
      "byteStride": 12,
      "name": "floatBufferViews",
      "target": 34962
    }
  ],
  "buffers": [
    {
      "byteLength": 1484508,
      "uri": "scene.bin"
    }
  ],
  "extensionsRequired": [
    "KHR_materials_pbrSpecularGlossiness"
  ],
  "extensionsUsed": [
    "KHR_materials_pbrSpecularGlossiness"
  ],
  "images": [
    {
      "uri": "textures/material_diffuse.png"
    },
    {
      "uri": "textures/material_specularGlossiness.png"
    },
    {
      "uri": "textures/material_1_diffuse.png"
    },
    {
      "uri": "textures/material_1_specularGlossiness.png"
    },
    {
      "uri": "textures/material_2_diffuse.png"
    },
    {
      "uri": "textures/material_2_specularGlossiness.png"
    },
    {
      "uri": "textures/material_3_diffuse.png"
    },
    {
      "uri": "textures/material_3_specularGlossiness.png"
    },
    {
      "uri": "textures/material_4_diffuse.png"
    },
    {
      "uri": "textures/material_4_specularGlossiness.png"
    },
    {
      "uri": "textures/material_5_diffuse.png"
    },
    {
      "uri": "textures/material_5_specularGlossiness.png"
    }
  ],
  "materials": [
    {
      "doubleSided": true,
      "extensions": {
        "KHR_materials_pbrSpecularGlossiness": {
          "diffuseFactor": [
            1.0,
            1.0,
            1.0,
            1.0
          ],
          "diffuseTexture": {
            "index": 0
          },
          "glossinessFactor": 1.0,
          "specularFactor": [
            1.0,
            1.0,
            1.0
          ],
          "specularGlossinessTexture": {
            "index": 1
          }
        }
      },
      "name": "material"
    },
    {
      "doubleSided": true,
      "extensions": {
        "KHR_materials_pbrSpecularGlossiness": {
          "diffuseFactor": [
            1.0,
            1.0,
            1.0,
            1.0
          ],
          "diffuseTexture": {
            "index": 2
          },
          "glossinessFactor": 1.0,
          "specularFactor": [
            1.0,
            1.0,
            1.0
          ],
          "specularGlossinessTexture": {
            "index": 3
          }
        }
      },
      "name": "material_1"
    },
    {
      "doubleSided": true,
      "extensions": {
        "KHR_materials_pbrSpecularGlossiness": {
          "diffuseFactor": [
            1.0,
            1.0,
            1.0,
            1.0
          ],
          "diffuseTexture": {
            "index": 4
          },
          "glossinessFactor": 1.0,
          "specularFactor": [
            1.0,
            1.0,
            1.0
          ],
          "specularGlossinessTexture": {
            "index": 5
          }
        }
      },
      "name": "material_2"
    },
    {
      "doubleSided": true,
      "extensions": {
        "KHR_materials_pbrSpecularGlossiness": {
          "diffuseFactor": [
            1.0,
            1.0,
            1.0,
            1.0
          ],
          "diffuseTexture": {
            "index": 6
          },
          "glossinessFactor": 1.0,
          "specularFactor": [
            1.0,
            1.0,
            1.0
          ],
          "specularGlossinessTexture": {
            "index": 7
          }
        }
      },
      "name": "material_3"
    },
    {
      "doubleSided": true,
      "extensions": {
        "KHR_materials_pbrSpecularGlossiness": {
          "diffuseFactor": [
            1.0,
            1.0,
            1.0,
            1.0
          ],
          "diffuseTexture": {
            "index": 8
          },
          "glossinessFactor": 1.0,
          "specularFactor": [
            1.0,
            1.0,
            1.0
          ],
          "specularGlossinessTexture": {
            "index": 9
          }
        }
      },
      "name": "material_4"
    },
    {
      "doubleSided": true,
      "extensions": {
        "KHR_materials_pbrSpecularGlossiness": {
          "diffuseFactor": [
            1.0,
            1.0,
            1.0,
            1.0
          ],
          "diffuseTexture": {
            "index": 10
          },
          "glossinessFactor": 1.0,
          "specularFactor": [
            1.0,
            1.0,
            1.0
          ],
          "specularGlossinessTexture": {
            "index": 11
          }
        }
      },
      "name": "material_5"
    }
  ],
  "meshes": [
    {
      "name": "Object_0",
      "primitives": [
        {
          "attributes": {
            "NORMAL": 1,
            "POSITION": 0,
            "TEXCOORD_0": 2,
            "TEXCOORD_1": 3,
            "TEXCOORD_2": 4
          },
          "indices": 5,
          "material": 0,
          "mode": 4
        }
      ]
    },
    {
      "name": "Object_1",
      "primitives": [
        {
          "attributes": {
            "NORMAL": 7,
            "POSITION": 6,
            "TEXCOORD_0": 8,
            "TEXCOORD_1": 9,
            "TEXCOORD_2": 10
          },
          "indices": 11,
          "material": 1,
          "mode": 4
        }
      ]
    },
    {
      "name": "Object_2",
      "primitives": [
        {
          "attributes": {
            "NORMAL": 13,
            "POSITION": 12,
            "TEXCOORD_0": 14,
            "TEXCOORD_1": 15,
            "TEXCOORD_2": 16
          },
          "indices": 17,
          "material": 2,
          "mode": 4
        }
      ]
    },
    {
      "name": "Object_3",
      "primitives": [
        {
          "attributes": {
            "NORMAL": 19,
            "POSITION": 18,
            "TEXCOORD_0": 20,
            "TEXCOORD_1": 21,
            "TEXCOORD_2": 22
          },
          "indices": 23,
          "material": 3,
          "mode": 4
        }
      ]
    },
    {
      "name": "Object_4",
      "primitives": [
        {
          "attributes": {
            "NORMAL": 25,
            "POSITION": 24,
            "TEXCOORD_0": 26,
            "TEXCOORD_1": 27,
            "TEXCOORD_2": 28
          },
          "indices": 29,
          "material": 4,
          "mode": 4
        }
      ]
    },
    {
      "name": "Object_5",
      "primitives": [
        {
          "attributes": {
            "NORMAL": 31,
            "POSITION": 30,
            "TEXCOORD_0": 32,
            "TEXCOORD_1": 33,
            "TEXCOORD_2": 34
          },
          "indices": 35,
          "material": 5,
          "mode": 4
        }
      ]
    }
  ],
  "nodes": [
    {
      "children": [
        1
      ],
      "matrix": [
        1.0,
        0.0,
        0.0,
        0.0,
        0.0,
        2.220446049250313e-16,
        -1.0,
        0.0,
        0.0,
        1.0,
        2.220446049250313e-16,
        0.0,
        0.0,
        0.0,
        0.0,
        1.0
      ],
      "name": "Sketchfab_model"
    },
    {
      "children": [
        2
      ],
      "name": "root"
    },
    {
      "children": [
        3
      ],
      "matrix": [
        1.0,
        0.0,
        0.0,
        0.0,
        0.0,
        2.220446049250313e-16,
        1.0,
        0.0,
        0.0,
        -1.0,
        2.220446049250313e-16,
        0.0,
        0.0,
        0.0,
        0.0,
        1.0
      ],
      "name": "GLTF_SceneRootNode"
    },
    {
      "children": [
        4,
        6,
        8,
        10,
        12,
        14
      ],
      "name": "root_0"
    },
    {
      "children": [
        5
      ],
      "matrix": [
        0.0062881093472242355,
        0.0,
        0.0,
        0.0,
        0.0,
        0.0062881093472242355,
        0.0,
        0.0,
        0.0,
        0.0,
        0.0062881093472242355,
        0.0,
        -0.09250480681657791,
        -0.061965517699718475,
        0.2107222080230713,
        1.0
      ],
      "name": "node_id34_1"
    },
    {
      "mesh": 0,
      "name": "Object_5"
    },
    {
      "children": [
        7
      ],
      "matrix": [
        0.01178912166506052,
        0.0,
        0.0,
        0.0,
        0.0,
        0.011789117939770222,
        0.0,
        0.0,
        0.0,
        0.0,
        0.011789117939770222,
        0.0,
        -0.27412450313568115,
        0.12223454564809799,
        -0.031541917473077774,
        1.0
      ],
      "name": "node_id54_2"
    },
    {
      "mesh": 1,
      "name": "Object_7"
    },
    {
      "children": [
        9
      ],
      "matrix": [
        0.011107481084764004,
        0.0,
        0.0,
        0.0,
        0.0,
        0.011107481084764004,
        0.0,
        0.0,
        0.0,
        0.0,
        0.011107481084764004,
        0.0,
        -0.0523383803665638,
        -0.060955554246902466,
        0.008974093943834305,
        1.0
      ],
      "name": "node_id66_4"
    },
    {
      "mesh": 2,
      "name": "Object_9"
    },
    {
      "children": [
        11
      ],
      "matrix": [
        0.001591556123457849,
        0.0,
        0.0,
        0.0,
        0.0,
        0.001591556123457849,
        0.0,
        0.0,
        0.0,
        0.0,
        0.001591556123457849,
        0.0,
        -0.2126345932483673,
        0.06865189224481583,
        0.22428467869758606,
        1.0
      ],
      "name": "node_id76_6"
    },
    {
      "mesh": 3,
      "name": "Object_11"
    },
    {
      "children": [
        13
      ],
      "matrix": [
        0.019520290195941925,
        0.0,
        0.0,
        0.0,
        0.0,
        0.02464987337589264,
        0.0,
        0.0,
        0.0,
        0.0,
        0.02464987337589264,
        0.0,
        -0.1563117951154709,
        -0.062082331627607346,
        0.22955617308616638,
        1.0
      ],
      "name": "node_id88_3"
    },
    {
      "mesh": 4,
      "name": "Object_13"
    },
    {
      "children": [
        15
      ],
      "matrix": [
        0.003634826096213304,
        -2.483767591942027e-10,
        -0.005092640485516671,
        0.0,
        -0.005092640864538435,
        -1.058523165955699e-09,
        -0.003634826366736608,
        0.0,
        -7.172845291541344e-10,
        0.0062567526474594124,
        -8.171078399418688e-10,
        0.0,
        -0.1261034607887268,
        0.10031847655773163,
        0.2564191222190857,
        1.0
      ],
      "name": "node_id94_5"
    },
    {
      "mesh": 5,
      "name": "Object_15"
    }
  ],
  "samplers": [
    {
      "magFilter": 9729,
      "minFilter": 9987,
      "wrapS": 10497,
      "wrapT": 10497
    }
  ],
  "scene": 0,
  "scenes": [
    {
      "name": "Sketchfab_Scene",
      "nodes": [
        0
      ]
    }
  ],
  "textures": [
    {
      "sampler": 0,
      "source": 0
    },
    {
      "sampler": 0,
      "source": 1
    },
    {
      "sampler": 0,
      "source": 2
    },
    {
      "sampler": 0,
      "source": 3
    },
    {
      "sampler": 0,
      "source": 4
    },
    {
      "sampler": 0,
      "source": 5
    },
    {
      "sampler": 0,
      "source": 6
    },
    {
      "sampler": 0,
      "source": 7
    },
    {
      "sampler": 0,
      "source": 8
    },
    {
      "sampler": 0,
      "source": 9
    },
    {
      "sampler": 0,
      "source": 10
    },
    {
      "sampler": 0,
      "source": 11
    }
  ]
}
